<svg xmlns="http://www.w3.org/2000/svg" xmlns:xlink="http://www.w3.org/1999/xlink"><defs>
<clipPath id="clip0_11_92">
<rect width="68.4436" height="68.4436" fill="white" transform="translate(0 48.397) rotate(-45)"/>
</clipPath>

<clipPath id="clip0_4_4">
<rect width="74.2244" height="74.2244" fill="white" transform="translate(0 64.2803) rotate(-60)"/>
</clipPath>
</defs><symbol id="icon-beard-cut" viewBox="0 0 97 97">
<g clip-path="url(#clip0_11_92)">
<path d="M46.1062 38.4172L46.1062 33.8364L50.687 33.8364L50.687 38.4172L46.1062 38.4172Z" fill="#008FDD"/>
<path d="M46.7775 62.0411C46.3451 62.4735 46.1066 63.0487 46.1066 63.6602L46.107 72.2513C46.1066 72.8631 46.3451 73.4384 46.7775 73.8708C47.2102 74.3035 47.7851 74.5417 48.397 74.5413C49.0084 74.5413 49.5833 74.3032 50.0161 73.8704C50.4485 73.438 50.687 72.8628 50.687 72.2513L50.6874 63.6602C50.6874 63.0487 50.4492 62.4731 50.0168 62.0407C49.5841 61.608 49.0092 61.3698 48.397 61.3698C47.7851 61.3702 47.2102 61.6083 46.7775 62.0411Z" fill="#008FDD"/>
<path d="M54.6977 40.4214C54.6977 40.9752 54.4732 41.4767 54.1102 41.8396C53.7476 42.2022 53.2462 42.4267 52.6923 42.4267L44.1012 42.4271C43.5695 42.4271 43.0592 42.2159 42.6834 41.84C42.3071 41.4637 42.0959 40.9534 42.0959 40.4217L42.0963 33.8356L30.2839 33.836L30.2836 71.1775C30.2836 76.0161 32.1678 80.5647 35.5888 83.9857C38.5327 86.9297 42.3119 88.7341 46.3916 89.1806L46.3916 93.9578C46.3916 95.0655 47.2892 95.9631 48.397 95.9631C48.9508 95.9631 49.4519 95.739 49.8149 95.376C50.1778 95.0131 50.4023 94.5116 50.4019 93.9582L50.4019 89.1809C54.482 88.7342 58.2612 86.9297 61.2052 83.9857C64.6262 80.5647 66.51 76.0157 66.5104 71.1775L66.5104 33.8356L54.6977 33.8356V40.4214ZM54.698 63.6602L54.6977 72.2513C54.6973 73.9339 54.0423 75.5165 52.8522 76.7065C51.6622 77.8966 50.08 78.552 48.397 78.552C46.714 78.552 45.1318 77.8966 43.9417 76.7065C42.7517 75.5165 42.0963 73.9343 42.0963 72.2513L42.0963 63.6606C42.0963 61.9776 42.7517 60.3954 43.9417 59.2053C45.1322 58.0149 46.7143 57.3595 48.3973 57.3595C50.08 57.3599 51.6625 58.0149 52.8526 59.205C54.0423 60.3954 54.6977 61.9776 54.698 63.6602Z" fill="#008FDD"/>
<path d="M64.505 16.9389C63.3973 16.9389 62.4997 17.8365 62.4997 18.9443V21.2343H60.0672V18.9443C60.0672 17.8365 59.1695 16.9389 58.0622 16.9385C56.9548 16.9389 56.0572 17.8365 56.0568 18.9439L56.0565 21.2343L53.6239 21.2343V18.9443C53.6239 17.8365 52.7263 16.9389 51.619 16.9385C50.5116 16.9389 49.614 17.8365 49.6136 18.9439L49.6132 21.2343L47.1807 21.2343V18.9435C47.1807 17.8365 46.2827 16.9385 45.1757 16.9385C44.068 16.9385 43.1704 17.8362 43.1704 18.9439L43.17 21.2343H40.7375L40.7371 18.9439C40.7375 17.8365 39.8395 16.9385 38.7321 16.9389C37.6244 16.9389 36.7268 17.8365 36.7268 18.9443V21.2343L34.2939 21.2346L34.2935 18.9443C34.2939 17.8369 33.3959 16.9389 32.2885 16.9393C31.1808 16.9393 30.2832 17.8369 30.2832 18.9446L30.2832 23.2396C30.2836 23.24 30.2836 23.24 30.2836 23.2407V29.8257L66.5104 29.825L66.51 23.2404C66.51 23.2404 66.5104 23.24 66.5104 23.2392L66.51 18.9439C66.5104 17.8365 65.6124 16.9385 64.505 16.9389Z" fill="#008FDD"/>
</g>

</symbol><symbol id="icon-burger" viewBox="0 0 24 24">
<path d="M3 12H21" stroke-width="2" stroke-linecap="square" stroke-linejoin="round"/>
<path d="M3 6H21" stroke-width="2" stroke-linecap="square" stroke-linejoin="round"/>
<path d="M3 18H21" stroke-width="2" stroke-linecap="square" stroke-linejoin="round"/>
</symbol><symbol id="icon-cross" viewBox="0 0 24 24">
<path d="M20 4L4 20" stroke-width="2" stroke-linecap="square" stroke-linejoin="round"/>
<path d="M4 4L20 20" stroke-width="2" stroke-linecap="square" stroke-linejoin="round"/>
</symbol><symbol id="icon-facebook" viewBox="0 0 19 38">
<path d="M15.5312 6.30958H19V0.267583C18.4016 0.18525 16.3434 0 13.9464 0C8.94512 0 5.51908 3.14608 5.51908 8.92842V14.25H6.10352e-05V21.0045H5.51908V38H12.2857V21.0061H17.5815L18.4221 14.2516H12.2841V9.59817C12.2857 7.64592 12.8113 6.30958 15.5312 6.30958Z" fill="white"/>
</symbol><symbol id="icon-facial" viewBox="0 0 66 66">
<path d="M7.73438 0V7.73438H5.80078V11.6016H21.2695V7.73438H19.3359V3.86719H28.2033L31.504 7.16783L34.2381 4.43373L29.8045 0H7.73438Z" fill="#008FDD"/>
<path d="M46.5352 52.3379C46.5352 53.4029 47.4019 54.2695 48.4688 54.2695C49.5338 54.2695 50.4023 53.4028 50.4023 52.3359C50.3853 51.743 49.581 50.0587 48.4688 48.1855C47.3546 50.0624 46.5502 51.7468 46.5352 52.3379Z" fill="#008FDD"/>
<path d="M58.2656 31.0664V27.1992H38.6719V31.0664H35.5431C32.2221 37.7764 30.9375 43.8484 30.9375 48.4688C30.9375 53.0846 32.219 59.2836 35.5431 66H61.3946C64.7155 59.2898 66 53.0891 66 48.4688C66 43.8529 64.7185 37.7828 61.3944 31.0664H58.2656ZM48.4688 58.1367C45.2701 58.1367 42.668 55.5346 42.668 52.3359C42.668 49.8642 45.6118 45.3361 46.8769 43.5026L48.4688 41.199L50.0606 43.5026C51.3257 45.3361 54.2695 49.8642 54.2695 52.3359C54.2695 55.5346 51.6674 58.1367 48.4688 58.1367Z" fill="#008FDD"/>
<path d="M38.6719 11.6016H58.2656V23.332H38.6719V11.6016Z" fill="#008FDD"/>
<path d="M11.6016 44.6035C11.6016 45.6684 12.4683 46.5352 13.5352 46.5352C14.6002 46.5352 15.4688 45.6684 15.4688 44.6016C15.4517 44.0086 14.6474 42.3243 13.5352 40.4512C12.421 42.328 11.6166 44.0125 11.6016 44.6035Z" fill="#008FDD"/>
<path d="M0 58.1367H27.0703V66H0V58.1367Z" fill="#008FDD"/>
<path d="M0 15.4688H27.0703V23.332H0V15.4688Z" fill="#008FDD"/>
<path d="M27.0703 27.1992H0V54.2695H27.0703V27.1992ZM13.5352 50.4023C10.3365 50.4023 7.73438 47.8002 7.73438 44.6016C7.73438 42.1298 10.6782 37.6017 11.9433 35.7683L13.5352 33.4646L15.127 35.7683C16.3921 37.6017 19.3359 42.1298 19.3359 44.6016C19.3359 47.8002 16.7338 50.4023 13.5352 50.4023Z" fill="#008FDD"/>
</symbol><symbol id="icon-google" viewBox="0 0 28 30">
<path d="M24.3158 12.2804V8.59626H21.8596V12.2804H18.1754V14.7365H21.8596V18.4206H24.3158V14.7365H28V12.2804H24.3158ZM14.8596 16.4557L13.5087 15.4733C13.0175 15.1049 12.5263 14.6136 12.5263 13.754C12.5263 12.8944 13.1404 12.1576 13.7544 11.7892C15.3509 10.5611 16.9474 9.21028 16.9474 6.5086C16.9474 3.92972 15.3509 2.45608 14.4912 1.71925H16.5789L18.0526 0H10.4386C5.03509 0 2.33333 3.43851 2.33333 7.12262C2.33333 9.94711 4.54386 13.0172 8.47368 13.0172H9.45614C9.33333 13.3856 8.96491 13.9996 8.96491 14.6136C8.96491 15.8417 9.45614 16.3329 10.0702 17.0697C8.35088 17.1925 5.15789 17.5609 2.82456 19.0346C0.614035 20.3854 0 22.2275 0 23.5783C0 26.4028 2.57895 29.1045 8.10526 29.1045C14.7368 29.1045 17.9299 25.4204 17.9299 21.8591C17.9298 19.2802 16.5789 17.9293 14.8596 16.4557ZM5.52632 5.28056C5.52632 2.57888 7.12281 1.35084 8.8421 1.35084C12.0351 1.35084 13.7544 5.64897 13.7544 8.10505C13.7544 11.2979 11.1754 11.912 10.193 11.912C7.12281 11.912 5.52632 8.10505 5.52632 5.28056ZM9.94732 27.3852C5.89469 27.3852 3.31574 25.5432 3.31574 22.8415C3.31574 20.1398 5.77188 19.2801 6.50872 18.9117C8.10521 18.4205 10.1929 18.2977 10.5614 18.2977C10.9298 18.2977 11.1754 18.2977 11.421 18.2977C14.3684 20.3854 15.5964 21.245 15.5964 23.2099C15.5964 25.5432 13.2632 27.3852 9.94732 27.3852Z" fill="white"/>
</symbol><symbol id="icon-logo" viewBox="0 0 163 103">
<path d="M76.12 73.48C78.0933 72.6 79.96 72.16 81.72 72.16C84.0133 72.16 85.1867 73.5067 85.24 76.2H81C78.84 76.2 77.0933 76.7333 75.76 77.8C74.4533 78.8667 73.8 80.3733 73.8 82.32C73.8 84.1867 74.3733 85.68 75.52 86.8C76.6933 87.92 78.4 88.48 80.64 88.48C81.6 88.48 82.56 88.2533 83.52 87.8C84.48 87.3467 85.3333 86.76 86.08 86.04L86.76 88H89.76V75.04C89.76 73.7333 89.4 72.56 88.68 71.52C87.96 70.4533 86.9733 69.6133 85.72 69C84.4933 68.3867 83.1333 68.08 81.64 68.08C80.7333 68.08 79.5467 68.2533 78.08 68.6C76.64 68.9467 75.5733 69.3467 74.88 69.8L76.12 73.48ZM77.72 82.32C77.72 81.44 78 80.7067 78.56 80.12C79.1467 79.5067 79.9333 79.2 80.92 79.2H85.28V82.68C84.6133 83.3733 83.8667 83.92 83.04 84.32C82.2133 84.72 81.3867 84.92 80.56 84.92C79.68 84.92 78.9867 84.6667 78.48 84.16C77.9733 83.6267 77.72 83.0133 77.72 82.32ZM98.7219 75.64C99.7885 74.68 100.962 73.8667 102.242 73.2C103.522 72.5333 104.642 72.2 105.602 72.2L104.682 68.6C103.749 68.6 102.655 68.9333 101.402 69.6C100.175 70.2667 99.0819 71 98.1219 71.8L96.6419 68.6H94.2419V88H98.7219V75.64ZM116.984 68.08C118.958 68.08 120.678 68.5067 122.144 69.36C123.611 70.1867 124.731 71.3733 125.504 72.92C126.304 74.4667 126.704 76.28 126.704 78.36C126.704 80.36 126.304 82.1333 125.504 83.68C124.704 85.2 123.558 86.3867 122.064 87.24C120.598 88.0933 118.878 88.52 116.904 88.52C116.184 88.52 115.371 88.36 114.464 88.04C113.584 87.72 112.758 87.2933 111.984 86.76L111.064 88H108.704V60.2L113.184 59.76V69.12C114.491 68.4267 115.758 68.08 116.984 68.08ZM116.904 84.64C118.504 84.64 119.758 84.0533 120.664 82.88C121.598 81.7067 122.064 80.2 122.064 78.36C122.064 76.44 121.611 74.8933 120.704 73.72C119.798 72.52 118.531 71.92 116.904 71.92C116.211 71.92 115.558 72.0267 114.944 72.24C114.358 72.4533 113.771 72.7733 113.184 73.2V83.44C114.278 84.24 115.518 84.64 116.904 84.64ZM147.061 78.16C147.061 75.2267 146.328 72.8133 144.861 70.92C143.395 69.0267 141.235 68.08 138.381 68.08C136.435 68.08 134.741 68.5067 133.301 69.36C131.888 70.2133 130.795 71.4133 130.021 72.96C129.275 74.48 128.901 76.2533 128.901 78.28C128.901 81.4267 129.821 83.92 131.661 85.76C133.528 87.5733 136.221 88.48 139.741 88.48C142.355 88.48 144.741 87.7333 146.901 86.24L145.541 82.96C144.395 83.5467 143.408 83.9867 142.581 84.28C141.781 84.5467 140.861 84.68 139.821 84.68C136.088 84.68 134.021 82.9467 133.621 79.48H147.061V78.16ZM133.701 76.48C133.888 75.04 134.368 73.92 135.141 73.12C135.941 72.32 136.981 71.92 138.261 71.92C139.515 71.92 140.515 72.3067 141.261 73.08C142.008 73.8533 142.501 74.9867 142.741 76.48H133.701ZM154.933 75.64C155.999 74.68 157.173 73.8667 158.453 73.2C159.733 72.5333 160.853 72.2 161.813 72.2L160.893 68.6C159.959 68.6 158.866 68.9333 157.613 69.6C156.386 70.2667 155.293 71 154.333 71.8L152.853 68.6H150.453V88H154.933V75.64Z" fill="#99BAED"/>
<g clip-path="url(#clip0_4_4)">
<path d="M50.5803 7.77584C44.6236 8.29699 40.0962 13.5571 40.6169 19.5145L43.2968 50.1482L33.162 54.8735C29.7678 48.9757 22.3668 46.5552 16.0846 49.485C9.45122 52.5794 6.58174 60.4628 9.67428 67.0971C12.768 73.7299 20.6523 76.6013 27.2873 73.5076C31.8398 71.3846 34.6184 67.0039 34.9143 62.3216L47.3265 56.5333L48.5196 70.1754C44.6133 72.7733 42.209 77.3698 42.6457 82.3736C43.2841 89.6662 49.7121 95.0582 57.003 94.4212C64.2956 93.7827 69.6885 87.3552 69.0511 80.0643C68.447 73.1594 62.6501 67.9605 55.8458 67.969L54.8707 56.8294L82.7388 43.8338C88.1593 41.3065 90.4502 34.7552 87.9231 29.3359L53.8559 45.2238L50.5803 7.77584ZM27.6756 64.9207C25.7785 68.2067 21.5764 69.3326 18.2905 67.4355C15.0045 65.5383 13.8787 61.3362 15.7758 58.0503C17.6733 54.7636 21.8749 53.6385 25.1609 55.5356C28.4468 57.4327 29.5732 61.634 27.6756 64.9207ZM61.7886 84.6158C59.8914 87.9018 55.6894 89.0277 52.4034 87.1306C49.1175 85.2334 47.9916 81.0314 49.8887 77.7455C51.7863 74.4588 55.9879 73.3336 59.2738 75.2307C62.5597 77.1278 63.6861 81.3291 61.7886 84.6158Z" fill="#99BAED"/>
</g>

</symbol><symbol id="icon-scissors" viewBox="0 0 58 67">
<path d="M10.0398 0.995252C5.73254 4.01129 4.59742 10.0079 7.61344 14.316L23.1238 36.4676L17.4831 44.5224C12.305 41.5232 5.6043 42.934 2.10818 47.9276C-1.58299 53.2009 -0.30203 60.4664 4.9702 64.1591C10.2427 67.8502 17.5097 66.5702 21.2024 61.2968C23.736 57.6782 23.9259 53.1203 22.0925 49.4242L29.0002 39.5584L35.9071 49.4233C34.0746 53.1194 34.2645 57.6771 36.7972 61.2959C40.4899 66.569 47.7562 67.8491 53.0285 64.1582C58.3016 60.4654 59.5826 53.1992 55.8914 47.9268C52.3953 42.9338 45.6946 41.5233 40.5165 44.5217L34.8758 36.4668L50.3852 14.3161C53.4022 10.008 52.2663 4.01141 47.9588 0.99537L29.0001 28.0745L10.0398 0.995252ZM17.7226 54.5865C17.7226 57.9231 15.0175 60.6283 11.6808 60.6283C8.3442 60.6283 5.63911 57.923 5.63911 54.5865C5.63911 51.2491 8.34419 48.5447 11.6808 48.5447C15.0175 48.5447 17.7226 51.2491 17.7226 54.5865ZM52.3618 54.5865C52.3618 57.9231 49.6567 60.6282 46.32 60.6282C42.9834 60.6282 40.2783 57.9231 40.2783 54.5865C40.2783 51.2491 42.9834 48.5447 46.32 48.5447C49.6566 48.5447 52.3618 51.249 52.3618 54.5865Z" fill="#008FDD"/>
</symbol><symbol id="icon-twitter" viewBox="0 0 32 26">
<path d="M31.6923 3.0484C30.5137 3.56538 29.2579 3.90806 27.9486 4.07444C29.2955 3.27025 30.3236 2.00652 30.8069 0.483308C29.5511 1.23204 28.1645 1.7609 26.6869 2.05604C25.4944 0.786366 23.7949 0 21.9409 0C18.3439 0 15.448 2.91965 15.448 6.4989C15.448 7.0139 15.4916 7.5091 15.5985 7.98052C10.197 7.71708 5.4174 5.12821 2.20657 1.1845C1.64602 2.15706 1.31721 3.27025 1.31721 4.46862C1.31721 6.71877 2.47596 8.7134 4.20319 9.86819C3.15932 9.84838 2.13527 9.54533 1.26769 9.06796C1.26769 9.08777 1.26769 9.11352 1.26769 9.13927C1.26769 12.2966 3.51982 14.9192 6.47314 15.5233C5.94428 15.6679 5.36788 15.7372 4.76969 15.7372C4.35372 15.7372 3.9338 15.7134 3.53963 15.6263C4.38145 18.1993 6.77026 20.0909 9.61068 20.1523C7.40014 21.8816 4.5934 22.9234 1.5549 22.9234C1.02208 22.9234 0.511038 22.8997 0 22.8343C2.87805 24.6903 6.28893 25.75 9.96722 25.75C21.9231 25.75 28.4597 15.8462 28.4597 7.2615C28.4597 6.97429 28.4497 6.69698 28.4359 6.42165C29.7254 5.50654 30.8088 4.36363 31.6923 3.0484Z" fill="white"/>
</symbol></svg>